<mxfile host="app.diagrams.net" modified="2023-12-01T14:37:15.437Z" agent="Mozilla/5.0 (Windows NT 10.0; Win64; x64) AppleWebKit/537.36 (KHTML, like Gecko) Chrome/117.0.0.0 Safari/537.36 Edg/117.0.2045.31" version="22.1.5" etag="bS5yxAhOMSjA4-HiUrFs" type="github">
  <diagram name="Page-1" id="39Vwh8VO5_ytnwaBQAZt">
    <mxGraphModel>
      <root>
        <mxCell id="0" />
        <mxCell id="1" parent="0" />
      </root>
    </mxGraphModel>
  </diagram>
</mxfile>
